<svg width="500" height="185" viewBox="0 0 500 185" fill="none" xmlns="http://www.w3.org/2000/svg">
<path d="M0 16.7952C0 15.8823 0.957428 14.8358 2.87228 13.7225C4.78714 12.4979 7.4813 11.4514 10.9325 10.583C14.4727 9.69241 18.3025 9.3139 22.4216 9.42523C26.5408 9.51429 29.5689 10.2045 31.4838 11.5405C33.3986 12.8764 34.4229 14.346 34.5787 15.9046C35.8701 31.1789 37.1616 46.7501 38.453 62.6181C38.9577 62.6181 39.4698 62.6107 39.9893 62.5959C41.1323 47.1434 42.2753 31.9804 43.4182 17.1069C43.6409 14.769 46.1347 12.9655 50.9441 11.6295C55.7312 10.2936 60.1844 9.62562 64.3258 9.58109C68.445 9.53655 71.4954 9.91507 73.477 10.6944C75.4809 11.3846 76.7278 12.1416 77.2399 12.9432C77.8411 13.7448 78.1306 14.5018 78.1306 15.2366C78.1306 15.9046 77.5739 17.7972 76.4606 21.0034C75.4364 24.1652 74.3231 27.5718 73.1653 31.2011C69.2465 42.9797 62.6336 64.5998 53.3488 97.1078C52.5472 99.9356 46.2237 102.095 34.3561 103.387C30.6822 103.743 28.2553 103.609 27.0752 103.053C25.8951 102.474 25.0713 101.383 24.6259 99.7797C20.2841 83.548 15.0962 65.0896 9.06217 45.0727C3.02814 26.3695 0 17.285 0 16.7952ZM98.526 96.0168C91.824 97.0187 86.5693 96.0168 82.7396 92.9886C81.181 91.675 79.8228 89.6488 78.6427 86.8433C77.5517 84.0155 76.995 80.6089 76.995 76.6456C76.995 72.7045 77.7966 69.1643 79.422 66.0916C81.1142 63.0412 83.1404 60.6365 85.5005 58.8775C87.8607 57.1408 90.6217 55.6712 93.7834 54.4689C98.5705 52.7321 103.848 51.6634 109.592 51.2403C110.794 51.1513 112.004 51.0622 113.221 50.9731C113.221 47.7446 112.197 45.518 110.126 44.2934C109.258 43.7813 107.878 43.6032 106.052 43.7145C104.271 43.8258 102.111 44.4715 99.528 45.6739C97.0342 46.8762 94.9189 48.1231 93.2267 49.37C91.5346 50.5278 90.399 51.1513 89.7978 51.1958C88.4841 51.2849 86.6806 49.4591 84.3872 45.6962C82.1161 41.8887 80.9806 38.3485 80.9806 35.1422C80.9806 34.0734 82.3388 32.6484 85.0552 30.8004C87.7716 28.9968 91.6014 27.3269 96.5444 25.7683C101.554 24.1429 106.408 23.23 111.128 23.0741C115.849 22.896 119.901 23.1632 123.286 23.898C126.737 24.5437 129.542 25.3898 131.68 26.4585C133.884 27.5273 135.732 28.9968 137.202 30.8226C138.738 32.6707 139.896 34.3183 140.631 35.8102C141.432 37.2797 142.033 39.2168 142.39 41.6215C142.902 44.3825 143.169 47.7891 143.169 51.8638C143.169 63.1451 143.169 74.3745 143.169 85.5519C143.169 86.3757 141.165 87.3331 137.202 88.4464C133.305 89.4929 129.386 90.2945 125.49 90.8956C121.66 91.4746 119.166 91.7195 117.986 91.675C116.873 91.6082 116.205 91.43 115.982 91.1406C115.76 90.8734 115.582 90.3613 115.426 89.582C115.144 87.3999 114.854 85.2105 114.557 83.0136C114.26 83.0581 113.964 83.0952 113.667 83.1249C111.819 90.4503 106.787 94.7699 98.526 96.0168ZM113.333 74.1963C113.333 69.565 113.333 64.9412 113.333 60.3248C111.418 60.5029 109.882 61.5048 108.701 63.3752C107.521 65.2455 106.92 67.2939 106.92 69.5205C106.92 74.8198 108.033 77.3135 110.238 77.0463C111.195 76.935 111.93 76.601 112.464 76.0667C113.043 75.4432 113.333 74.8198 113.333 74.1963ZM251.536 45.852C251.536 55.6193 251.536 65.0896 251.536 74.2631C251.536 74.9088 249.443 75.3987 245.235 75.844C241.116 76.267 236.819 76.6233 232.321 76.8682C227.89 77.1799 225.018 77.2467 223.704 77.0686C222.368 76.8237 221.722 76.3116 221.722 75.51C221.722 66.9303 221.722 58.1501 221.722 49.1696C221.722 39.5953 220.654 34.7637 218.516 34.8082C218.004 34.8305 217.47 35.0531 216.958 35.4539C216.445 35.8992 216.201 36.634 216.201 37.6582C216.201 50.795 216.201 63.583 216.201 76.0221C216.201 76.7124 214.085 77.4917 209.899 78.3823C205.758 79.2284 201.461 79.9632 196.963 80.5198C192.465 81.121 189.571 81.3214 188.235 81.1878C186.988 80.9429 186.364 80.3862 186.364 79.5178C186.364 70.1514 186.364 60.6959 186.364 51.1513C186.364 43.3583 185.852 38.6824 184.806 37.1684C184.294 36.4781 183.648 36.1664 182.824 36.2109C181.421 36.2777 180.731 37.2574 180.731 39.2168C180.731 53.081 180.731 66.7596 180.731 80.2526C180.731 81.0097 178.638 81.9225 174.43 82.9913C170.244 84.0155 165.88 84.8616 161.405 85.5073C156.974 86.1753 154.101 86.398 152.788 86.2421C151.519 85.9972 150.895 85.3737 150.895 84.4386C150.895 66.3439 150.895 48.1083 150.895 29.7316C150.895 28.1285 153.01 26.4585 157.196 24.6995C161.471 22.9851 165.969 22.0276 170.667 21.8495C175.387 21.6937 178.037 22.9628 178.638 25.657C178.965 27.2453 179.291 28.8261 179.618 30.3996C179.885 30.3847 180.145 30.3773 180.397 30.3773C182.535 26.1468 186.075 23.0964 190.996 21.2038C193.066 20.4913 195.716 20.0905 198.967 20.0015C205.446 19.8679 210.144 22.9628 213.106 29.2418C214.063 27.1042 216.445 24.9445 220.275 22.7624C224.105 20.6026 228.335 19.4893 232.989 19.4448C240.27 19.4003 245.168 21.5601 247.684 25.8796C250.245 30.0879 251.536 36.7898 251.536 45.852ZM259.329 86.6206C259.329 68.051 259.329 48.2345 259.329 27.171C259.329 25.7238 261.378 24.2542 265.497 22.7624C269.638 21.2706 274.092 20.5804 278.879 20.6694C281.083 20.714 282.82 21.0034 284.067 21.5155C285.313 22.0499 286.093 22.562 286.382 23.0519C286.672 23.564 287.228 25.7238 288.052 29.4644C288.334 29.4793 288.624 29.4867 288.921 29.4867C289.076 28.8632 289.744 27.9058 290.924 26.5921C292.082 25.2784 293.262 24.2097 294.442 23.3859C295.712 22.562 297.471 21.8718 299.764 21.2929C302.035 20.6249 304.685 20.3354 307.713 20.4468C310.808 20.5358 313.591 21.3374 316.107 22.8292C318.601 24.232 320.449 25.8796 321.629 27.7722C322.876 29.5757 323.833 31.9136 324.501 34.7191C325.236 37.4578 325.637 39.6844 325.704 41.3543C325.859 42.9797 325.926 45.3176 325.926 48.4571C325.926 51.4853 325.815 54.4689 325.592 57.4525C325.392 60.3693 324.969 63.3084 324.39 66.2697C323.789 69.2311 322.943 71.7248 321.852 73.7287C320.738 75.7549 319.336 77.4694 317.643 78.9612C314.259 81.878 309.294 82.7909 302.725 81.8335C300.387 81.4995 298.272 80.9206 296.446 80.0968C294.665 79.2061 293.351 78.3155 292.461 77.3803C290.613 75.4432 289.544 73.8178 289.255 72.4373C289.225 72.1108 289.188 71.7916 289.143 71.4799C288.846 71.4502 288.549 71.4205 288.253 71.3908C288.772 74.2854 289.292 77.1799 289.811 80.0745C289.811 83.5925 289.811 87.0956 289.811 90.5839C289.811 91.2519 287.674 91.4078 283.399 91.0738C279.213 90.8066 274.871 90.3613 270.373 89.7156C265.942 89.1589 263.003 88.6913 261.534 88.2238C260.064 87.8452 259.329 87.3109 259.329 86.6206ZM296.001 51.1958C296.001 45.3844 295.667 41.2653 294.999 38.8606C294.331 36.4559 293.351 35.2312 292.016 35.1867C290.702 35.1199 289.744 35.7879 289.143 37.1461C289.143 46.0969 289.143 54.9068 289.143 63.5756C289.143 65.2455 290.145 66.1807 292.127 66.3588C294.71 66.6037 296.001 61.6162 296.001 51.1958ZM362.954 30.9785C362.954 50.0083 362.954 68.9416 362.954 87.7784C362.954 88.6245 360.817 88.9585 356.542 88.8027C352.333 88.5577 347.992 88.0679 343.516 87.3554C339.085 86.6429 336.213 85.9749 334.899 85.4405C333.63 84.7948 333.007 84.0155 333.007 83.1026C333.007 66.0767 333.007 48.8505 333.007 31.4238C333.007 29.7761 335.077 28.2843 339.197 26.8816C343.405 25.4343 347.969 24.8109 352.89 25.0335C359.592 25.323 362.954 27.3269 362.954 30.9785ZM347.925 0.00680773C352.779 0.0958708 356.586 0.94197 359.303 2.52284C362.108 4.08144 363.511 6.8424 363.511 10.8057C363.511 17.8194 358.345 21.1148 348.036 20.6917C337.727 20.2909 332.561 16.7284 332.561 9.93734C332.561 3.14628 337.683 -0.171318 347.925 0.00680773ZM401.029 57.6751C401.029 69.7135 401.029 81.737 401.029 93.7457C401.029 94.6808 398.913 95.0816 394.727 94.9925C390.586 94.8144 386.289 94.3468 381.791 93.6121C377.382 92.8996 374.51 92.2093 373.174 91.6082C371.861 90.9402 371.193 90.0718 371.193 89.0699C371.193 69.9213 371.193 50.7059 371.193 31.4238C371.193 29.932 373.219 28.4179 377.271 26.8593C381.39 25.3007 385.843 24.6327 390.631 24.8331C395.484 25.0335 398.223 26.5921 398.802 29.5535C399.173 31.4386 399.544 33.3312 399.915 35.2312C400.168 35.2461 400.428 35.2609 400.695 35.2758C401.719 32.2031 404.19 29.6871 408.087 27.7277C411.983 25.657 415.902 24.6773 419.799 24.7886C423.695 24.8999 426.434 25.7015 427.97 27.171C429.596 28.6406 430.397 30.5332 430.397 32.782C430.397 34.9863 430.264 37.8141 429.952 41.2653C429.662 44.761 428.928 48.5239 427.748 52.554C426.657 56.6064 425.165 58.5658 423.339 58.4322C422.604 58.3876 420.266 57.5638 416.37 56.0275C412.473 54.4689 409.222 53.6005 406.662 53.4224C404.146 53.222 402.565 53.5337 401.897 54.2907C401.318 55.07 401.029 56.1833 401.029 57.6751ZM464.976 73.7287C464.976 79.8073 467.247 82.969 471.812 83.1026C474.461 83.1472 477.935 81.9893 482.21 79.5624C486.485 76.8905 488.711 75.51 488.934 75.4877C490.337 75.3764 492.185 78.0483 494.456 83.6593C496.749 89.4706 497.885 93.857 497.885 96.7515C497.885 100.96 494.946 104.188 489.045 106.192C483.167 107.973 477.378 108.552 471.7 108.04C466.112 107.439 461.391 106.326 457.561 104.767C453.821 103.186 450.726 101.405 448.299 99.468C445.939 97.4418 443.846 95.1039 441.998 92.4765C440.216 89.8269 438.903 87.4222 438.012 85.1733C437.144 82.88 436.431 80.3639 435.919 77.6698C435.184 73.7287 434.806 69.7209 434.806 65.5795C434.806 49.7931 438.302 39.15 445.315 33.4055C448.766 30.4664 452.641 28.3957 456.916 27.2156C461.169 25.991 466.223 25.323 472.034 25.1671C490.671 24.1429 500 30.355 500 45.184C500 62.4177 489.535 73.0608 468.628 73.7955C467.41 73.7807 466.193 73.7584 464.976 73.7287ZM464.753 53.7118C464.753 56.6954 464.753 59.6791 464.753 62.6627C466.891 62.6627 468.628 61.5939 469.941 59.4787C471.344 57.3412 472.034 54.8029 472.034 51.797C472.034 46.4532 470.899 43.8481 468.628 43.9149C466.045 43.9817 464.753 47.188 464.753 53.7118Z" fill="#FFD74A"/>
<path d="M129.796 173.897C119.525 174.948 109.255 176.014 98.9854 177.095C96.5886 177.359 95.0063 177.349 94.1727 177.089C93.3382 176.807 92.8971 176.31 92.87 175.554C92.2857 159.652 91.6916 143.684 91.0877 127.649C91.0399 126.314 91.5365 125.249 92.6204 124.408C93.7488 123.565 95.7935 122.802 98.7306 122.072C108.358 119.663 117.985 117.231 127.612 114.778C128.627 114.518 129.208 116.414 129.372 120.396C129.535 124.311 129.442 127.323 129.119 129.495C128.75 131.625 128.233 132.758 127.504 132.917C124.363 133.565 119.086 134.266 111.652 135.111C111.716 136.892 111.787 138.671 111.866 140.451C118.957 138.771 123.62 137.691 125.765 137.257C127.071 137.01 127.798 138.633 127.944 142.103C128.091 145.596 127.92 148.276 127.476 150.185C127.051 152.005 126.418 152.986 125.554 153.128C121.177 153.686 116.801 154.251 112.425 154.824C112.485 156.5 112.545 158.184 112.606 159.875C121.004 157.97 126.777 156.805 129.991 156.334C130.988 156.187 131.59 158.059 131.75 161.908C131.888 165.757 131.793 168.701 131.442 170.719C131.069 172.76 130.528 173.827 129.796 173.897ZM156.54 167.904C156.241 170.143 154.15 171.466 150.198 171.852C146.268 172.238 142.707 172.343 139.469 172.147C136.297 171.905 134.691 171.249 134.652 170.136C134.628 169.469 135.552 167.275 137.445 163.531C139.337 159.742 142.196 154.337 146.041 147.248C137.799 136.091 133.674 130.402 133.654 129.845C133.593 128.756 135.232 127.249 138.549 125.303C141.888 123.357 144.674 122.121 146.995 121.614C149.293 121.086 151.074 121.045 152.361 121.511C153.689 121.887 154.445 122.484 154.631 123.301C155.886 127.653 157.141 132.019 158.397 136.401C158.619 136.363 158.84 136.326 159.062 136.288C159.246 131.9 159.437 127.489 159.635 123.055C159.666 122.675 160.202 122.099 161.242 121.26C162.301 120.353 163.76 119.41 165.553 118.454C167.343 117.432 169.078 116.746 170.781 116.373C177.127 115.032 180.363 115.807 180.511 118.698C180.543 119.588 179.704 122.292 178.015 126.764C176.322 131.125 173.753 137.165 170.284 144.798C178.936 157.455 183.259 164.319 183.288 165.12C183.395 167.5 180.729 168.954 175.222 169.463C166.739 170.257 162.258 169.549 161.778 167.36C160.664 163.628 159.55 159.887 158.436 156.14C158.288 156.16 158.125 156.18 157.948 156.202C157.464 160.125 156.995 164.026 156.54 167.904ZM186.832 179.497C185.969 159.936 185.079 140.08 184.165 119.927C184.116 118.569 185.394 116.919 188.019 114.954C190.642 112.922 193.536 111.615 196.656 110.991C198.093 110.694 199.23 110.72 200.088 111.024C200.925 111.372 201.45 111.732 201.666 112.17C201.861 112.631 202.332 114.575 203.036 118.07C203.228 118.033 203.42 117.997 203.611 117.96C203.701 117.356 204.065 116.318 204.771 114.889C205.479 113.482 206.215 112.275 206.938 111.313C207.727 110.327 208.852 109.395 210.314 108.519C211.772 107.553 213.486 106.89 215.478 106.529C217.494 106.189 219.357 106.568 221.066 107.643C222.775 108.696 224.072 110.076 224.933 111.738C225.838 113.355 226.561 115.49 227.123 118.143C227.749 120.683 228.113 122.764 228.237 124.364C228.403 125.873 228.573 128.14 228.703 131.143C228.851 134.034 228.887 136.907 228.901 139.78C228.866 142.544 228.745 145.378 228.493 148.306C228.24 151.189 227.794 153.678 227.156 155.773C226.517 157.823 225.694 159.724 224.619 161.434C222.555 164.783 219.346 166.613 215.011 166.902C213.456 167.025 212.045 166.83 210.825 166.339C209.624 165.781 208.731 165.122 208.08 164.366C206.82 162.762 206.031 161.275 205.783 159.947C205.728 159.652 205.687 159.334 205.66 158.994C205.468 159.015 205.275 159.037 205.083 159.059C205.556 161.894 206.029 164.721 206.501 167.541C206.657 171.071 206.813 174.608 206.97 178.152C206.994 178.82 205.613 179.448 202.803 179.995C200.04 180.606 197.18 180.998 194.223 181.193C191.312 181.386 189.349 181.323 188.38 181.024C187.391 180.792 186.86 180.276 186.832 179.497ZM209.208 137.99C208.961 132.34 208.575 128.388 208.026 126.135C207.457 123.927 206.772 122.838 205.886 122.981C205.022 123.123 204.425 123.88 204.119 125.295C204.519 133.984 204.917 142.592 205.311 151.119C205.372 152.81 206.067 153.565 207.399 153.428C209.065 153.279 209.683 148.155 209.208 137.99ZM252.914 132.192C253.392 142.201 253.856 152.054 254.307 161.752C254.333 162.464 252.973 163.07 250.208 163.637C247.508 164.135 244.668 164.459 241.687 164.588C238.773 164.737 236.876 164.649 235.975 164.369C235.094 164.022 234.604 163.416 234.575 162.592C233.808 146.148 233.003 129.266 232.16 111.947C232.089 110.591 233.345 108.964 235.951 107.088C238.579 105.189 241.482 104.127 244.639 103.925C247.865 103.787 249.739 105.102 250.235 107.78C250.577 109.446 250.912 111.127 251.24 112.824C251.418 112.817 251.589 112.811 251.752 112.805C252.297 109.978 253.816 107.607 256.288 105.692C258.78 103.731 261.331 102.815 263.943 102.944C266.532 103.074 268.384 103.788 269.479 105.108C270.639 106.403 271.254 108.007 271.345 109.943C271.434 111.811 271.43 114.173 271.4 117.07C271.325 119.947 270.99 123.034 270.374 126.375C269.779 129.672 268.879 131.286 267.676 131.285C267.185 131.28 265.629 130.756 262.985 129.692C260.34 128.651 258.161 128.15 256.446 128.166C254.799 128.203 253.765 128.574 253.345 129.28C253.013 129.96 252.848 130.969 252.914 132.192ZM295.818 141.929C296.013 146.133 297.627 148.281 300.661 148.395C302.423 148.444 304.693 147.738 307.473 146.347C310.228 144.889 311.695 144.19 311.852 144.207C312.767 144.241 314.08 146.088 315.77 149.703C317.436 153.298 318.331 155.895 318.39 157.541C318.497 159.921 316.6 161.705 312.765 162.867C308.907 164.008 305.096 164.59 301.307 164.57C297.608 164.546 294.475 164.146 291.885 163.392C289.363 162.636 287.256 161.664 285.588 160.498C283.985 159.286 282.505 157.779 281.195 156.044C279.951 154.284 278.978 152.603 278.343 151.044C277.682 149.396 277.127 147.589 276.699 145.577C276.082 142.658 275.682 139.598 275.524 136.418C274.945 123.984 276.843 115.383 281.293 110.879C283.486 108.639 285.995 107.168 288.802 106.532C291.608 105.875 294.97 105.799 298.864 106.283C311.353 107.886 317.846 114.36 318.358 125.548C318.889 137.271 312.177 142.702 298.25 142.02C297.432 141.99 296.621 141.96 295.818 141.929ZM294.992 127.566C295.099 129.745 295.207 131.918 295.314 134.082C296.743 134.165 297.855 133.479 298.672 132.046C299.534 130.589 299.915 128.793 299.815 126.636C299.628 122.654 298.776 120.635 297.234 120.49C295.513 120.351 294.773 122.717 294.992 127.566ZM344.42 165.209C336.325 165.009 330.338 163.931 326.478 161.93C324.525 160.886 323.53 159.853 323.473 158.897C323.362 156.405 323.815 153.493 324.855 150.18C325.896 146.912 326.863 145.296 327.734 145.354C328.225 145.381 329.901 146.145 332.739 147.625C335.643 149.081 338.055 149.863 339.975 149.973C341.939 150.059 343.207 150.013 343.777 149.748C344.414 149.48 344.706 148.935 344.654 148.112C344.623 147.244 344.107 146.528 343.131 146.028C342.107 145.418 340.867 144.995 339.386 144.714C337.906 144.455 336.285 143.978 334.546 143.327C332.852 142.675 331.241 141.864 329.759 140.914C328.233 139.989 326.931 138.476 325.855 136.442C324.777 134.32 324.208 132.112 324.126 129.82C324.019 127.462 323.979 125.726 324.028 124.61C324.076 123.45 324.397 121.856 324.994 119.852C325.635 117.846 326.558 116.254 327.788 115.118C329.084 113.98 331.034 113.063 333.706 112.388C336.423 111.734 339.495 111.668 342.899 112.148C346.303 112.65 349.154 113.239 351.449 113.869C353.764 114.433 355.589 115.013 356.904 115.635C358.24 116.233 359.353 116.839 360.2 117.455C361.686 118.516 362.436 119.558 362.496 120.603C362.576 122.829 361.996 125.322 360.735 128.041C359.475 130.805 358.431 132.156 357.581 132.053C356.798 131.97 355.036 131.298 352.295 130.037C349.529 128.688 347.519 127.935 346.244 127.803C344.164 127.587 343.161 128.18 343.212 129.605C343.267 130.516 343.961 131.249 345.386 131.844C346.81 132.417 348.548 133.023 350.51 133.688C352.516 134.329 354.507 135.171 356.505 136.214C358.568 137.209 360.319 138.84 361.804 141.104C363.288 143.345 364.122 146.1 364.26 149.326C364.695 160.25 358.09 165.544 344.42 165.209ZM389.335 166.408C381.194 166.165 375.23 165.131 371.376 163.264C369.424 162.264 368.432 161.319 368.401 160.452C368.298 158.183 368.805 155.558 369.835 152.58C370.911 149.645 371.884 148.206 372.755 148.264C373.246 148.291 374.92 149.011 377.755 150.38C380.655 151.747 383.065 152.463 384.986 152.594C386.928 152.703 388.219 152.657 388.812 152.435C389.428 152.212 389.723 151.734 389.696 150.977C389.646 150.199 389.133 149.572 388.158 149.094C387.157 148.528 385.895 148.128 384.415 147.847C382.958 147.609 381.338 147.177 379.6 146.549C377.907 145.941 376.299 145.197 374.819 144.314C373.296 143.455 372.021 142.075 370.952 140.219C369.926 138.317 369.342 136.333 369.268 134.264C369.171 132.173 369.16 130.614 369.213 129.609C369.265 128.582 369.593 127.167 370.221 125.407C370.891 123.6 371.844 122.207 373.079 121.227C374.358 120.246 376.313 119.463 379.012 118.92C381.756 118.399 384.808 118.379 388.213 118.903C391.618 119.405 394.49 119.97 396.761 120.557C399.097 121.075 400.898 121.612 402.21 122.167C403.544 122.698 404.633 123.261 405.523 123.831C406.96 124.782 407.707 125.713 407.762 126.625C407.833 128.605 407.221 130.81 405.926 133.218C404.632 135.671 403.583 136.867 402.756 136.785C401.973 136.702 400.191 136.075 397.454 134.925C394.714 133.709 392.707 133.023 391.431 132.869C389.352 132.653 388.345 133.157 388.391 134.448C388.419 135.227 389.134 135.914 390.535 136.465C391.958 136.994 393.693 137.533 395.653 138.154C397.657 138.75 399.646 139.526 401.641 140.479C403.678 141.387 405.447 142.861 406.879 144.904C408.377 146.922 409.178 149.389 409.283 152.304C409.657 162.138 403.008 166.832 389.335 166.408Z" fill="#FFD74A"/>
</svg>
